<svg width="46" height="46" viewBox="0 0 46 46" fill="none" xmlns="http://www.w3.org/2000/svg">
<path d="M0.25 22.75C0.25 10.3236 10.3236 0.25 22.75 0.25V0.25C35.1764 0.25 45.25 10.3236 45.25 22.75V22.75C45.25 35.1764 35.1764 45.25 22.75 45.25V45.25C10.3236 45.25 0.25 35.1764 0.25 22.75V22.75Z" fill="white"/>
<g clip-path="url(#clip0_270_22)">
<path d="M29.375 11H16.625C13.5184 11 11 13.5184 11 16.625V29.375C11 32.4816 13.5184 35 16.625 35H29.375C32.4816 35 35 32.4816 35 29.375V16.625C35 13.5184 32.4816 11 29.375 11Z" fill="url(#paint0_radial_270_22)"/>
<path d="M29.375 11H16.625C13.5184 11 11 13.5184 11 16.625V29.375C11 32.4816 13.5184 35 16.625 35H29.375C32.4816 35 35 32.4816 35 29.375V16.625C35 13.5184 32.4816 11 29.375 11Z" fill="url(#paint1_radial_270_22)"/>
<path d="M23.0008 13.625C20.4548 13.625 20.1352 13.6362 19.1353 13.6816C18.1372 13.7274 17.4559 13.8853 16.8598 14.1172C16.2432 14.3566 15.7201 14.677 15.1991 15.1982C14.6775 15.7194 14.3572 16.2424 14.117 16.8588C13.8845 17.4551 13.7263 18.1366 13.6814 19.1342C13.6367 20.1342 13.625 20.4539 13.625 23.0001C13.625 25.5463 13.6363 25.8648 13.6816 26.8647C13.7276 27.8628 13.8855 28.5441 14.1172 29.1402C14.3568 29.7568 14.6772 30.2799 15.1984 30.8009C15.7194 31.3225 16.2424 31.6436 16.8586 31.883C17.4552 32.1148 18.1365 32.2728 19.1344 32.3186C20.1344 32.364 20.4538 32.3752 22.9997 32.3752C25.5461 32.3752 25.8646 32.364 26.8646 32.3186C27.8626 32.2728 28.5447 32.1148 29.1412 31.883C29.7576 31.6436 30.2799 31.3225 30.8007 30.8009C31.3223 30.2799 31.6425 29.7568 31.8828 29.1404C32.1133 28.5441 32.2715 27.8626 32.3184 26.8649C32.3633 25.865 32.375 25.5463 32.375 23.0001C32.375 20.4539 32.3633 20.1344 32.3184 19.1344C32.2715 18.1363 32.1133 17.4552 31.8828 16.8591C31.6425 16.2424 31.3223 15.7194 30.8007 15.1982C30.2793 14.6768 29.7578 14.3564 29.1406 14.1173C28.543 13.8853 27.8613 13.7273 26.8632 13.6816C25.8632 13.6362 25.5448 13.625 22.9979 13.625H23.0008ZM22.1598 15.3145C22.4095 15.3141 22.688 15.3145 23.0008 15.3145C25.5041 15.3145 25.8007 15.3235 26.7892 15.3684C27.7032 15.4102 28.1994 15.5629 28.5298 15.6913C28.9674 15.8611 29.2793 16.0643 29.6072 16.3925C29.9353 16.7206 30.1384 17.0331 30.3088 17.4706C30.4371 17.8006 30.59 18.2968 30.6316 19.2108C30.6765 20.1991 30.6863 20.4959 30.6863 22.9979C30.6863 25.4999 30.6765 25.7968 30.6316 26.7851C30.5898 27.6991 30.4371 28.1952 30.3088 28.5253C30.1389 28.9629 29.9353 29.2744 29.6072 29.6023C29.2791 29.9305 28.9676 30.1335 28.5298 30.3035C28.1997 30.4324 27.7032 30.5848 26.7892 30.6266C25.8009 30.6715 25.5041 30.6812 23.0008 30.6812C20.4975 30.6812 20.2008 30.6715 19.2126 30.6266C18.2985 30.5844 17.8024 30.4317 17.4717 30.3033C17.0342 30.1333 16.7217 29.9303 16.3935 29.6022C16.0654 29.274 15.8623 28.9623 15.692 28.5246C15.5637 28.1945 15.4108 27.6984 15.3691 26.7843C15.3242 25.796 15.3152 25.4992 15.3152 22.9956C15.3152 20.492 15.3242 20.1968 15.3691 19.2085C15.4109 18.2944 15.5637 17.7983 15.692 17.4678C15.862 17.0303 16.0654 16.7178 16.3936 16.3897C16.7218 16.0616 17.0342 15.8584 17.4717 15.6882C17.8022 15.5592 18.2985 15.4069 19.2126 15.3649C20.0774 15.3258 20.4126 15.3141 22.1598 15.3121V15.3145ZM28.0052 16.8711C27.3841 16.8711 26.8802 17.3745 26.8802 17.9957C26.8802 18.6168 27.3841 19.1207 28.0052 19.1207C28.6263 19.1207 29.1302 18.6168 29.1302 17.9957C29.1302 17.3746 28.6263 16.8707 28.0052 16.8707V16.8711ZM23.0008 18.1856C20.3421 18.1856 18.1864 20.3413 18.1864 23.0001C18.1864 25.6589 20.3421 27.8136 23.0008 27.8136C25.6597 27.8136 27.8146 25.6589 27.8146 23.0001C27.8146 20.3413 25.6595 18.1856 23.0007 18.1856H23.0008ZM23.0008 19.875C24.7267 19.875 26.1259 21.2741 26.1259 23.0001C26.1259 24.7259 24.7267 26.1252 23.0008 26.1252C21.275 26.1252 19.8759 24.7259 19.8759 23.0001C19.8759 21.2741 21.2749 19.875 23.0008 19.875Z" fill="white"/>
</g>
<defs>
<radialGradient id="paint0_radial_270_22" cx="0" cy="0" r="1" gradientUnits="userSpaceOnUse" gradientTransform="translate(17.375 36.8485) rotate(-90) scale(23.7858 22.1227)">
<stop stop-color="#FFDD55"/>
<stop offset="0.1" stop-color="#FFDD55"/>
<stop offset="0.5" stop-color="#FF543E"/>
<stop offset="1" stop-color="#C837AB"/>
</radialGradient>
<radialGradient id="paint1_radial_270_22" cx="0" cy="0" r="1" gradientUnits="userSpaceOnUse" gradientTransform="translate(6.97991 12.7288) rotate(78.681) scale(10.6324 43.827)">
<stop stop-color="#3771C8"/>
<stop offset="0.128" stop-color="#3771C8"/>
<stop offset="1" stop-color="#6600FF" stop-opacity="0"/>
</radialGradient>
<clipPath id="clip0_270_22">
<rect width="24" height="24" fill="white" transform="translate(11 11)"/>
</clipPath>
</defs>
</svg>
