<svg width="45" height="45" viewBox="0 0 45 45" fill="none" xmlns="http://www.w3.org/2000/svg">
<path d="M0 22.5C0 10.0736 10.0736 0 22.5 0V0C34.9264 0 45 10.0736 45 22.5V22.5C45 34.9264 34.9264 45 22.5 45V45C10.0736 45 0 34.9264 0 22.5V22.5Z" fill="white"/>
<path d="M29.375 11H16.625C13.5184 11 11 13.5184 11 16.625V29.375C11 32.4816 13.5184 35 16.625 35H29.375C32.4816 35 35 32.4816 35 29.375V16.625C35 13.5184 32.4816 11 29.375 11Z" fill="white"/>
<path d="M29.375 11H16.625C13.5184 11 11 13.5184 11 16.625V29.375C11 32.4816 13.5184 35 16.625 35H29.375C32.4816 35 35 32.4816 35 29.375V16.625C35 13.5184 32.4816 11 29.375 11Z" fill="#0A66C2"/>
<path d="M28.317 31.408H31.0611C31.1605 31.408 31.2559 31.3685 31.3262 31.2982C31.3965 31.2279 31.4361 31.1325 31.4361 31.0331L31.4375 25.2354C31.4375 22.2051 30.7845 19.8759 27.2433 19.8759C25.8972 19.8258 24.6277 20.5198 23.9427 21.6785C23.9393 21.6841 23.9342 21.6885 23.9281 21.691C23.9221 21.6934 23.9154 21.6938 23.909 21.6921C23.9027 21.6904 23.8971 21.6867 23.8931 21.6815C23.8891 21.6763 23.8869 21.67 23.8869 21.6634V20.5306C23.8869 20.4312 23.8474 20.3358 23.777 20.2655C23.7067 20.1951 23.6113 20.1556 23.5119 20.1556H20.9078C20.8083 20.1556 20.7129 20.1951 20.6426 20.2655C20.5723 20.3358 20.5328 20.4312 20.5328 20.5306V31.0325C20.5328 31.132 20.5723 31.2273 20.6426 31.2977C20.7129 31.368 20.8083 31.4075 20.9078 31.4075H23.6517C23.7511 31.4075 23.8465 31.368 23.9168 31.2977C23.9871 31.2273 24.0267 31.132 24.0267 31.0325V25.8413C24.0267 24.3734 24.3051 22.9519 26.1249 22.9519C27.9188 22.9519 27.942 24.6315 27.942 25.9363V31.033C27.942 31.1324 27.9815 31.2278 28.0519 31.2981C28.1222 31.3685 28.2176 31.408 28.317 31.408ZM14.5625 16.5901C14.5625 17.7024 15.4782 18.6176 16.5905 18.6176C17.7026 18.6175 18.6177 17.7017 18.6177 16.5897C18.6175 15.4776 17.7023 14.5625 16.5901 14.5625C15.4777 14.5625 14.5625 15.4779 14.5625 16.5901ZM15.2149 31.408H17.9624C18.0619 31.408 18.1573 31.3685 18.2276 31.2981C18.2979 31.2278 18.3374 31.1324 18.3374 31.033V20.5306C18.3374 20.4312 18.2979 20.3358 18.2276 20.2655C18.1573 20.1951 18.0619 20.1556 17.9624 20.1556H15.2149C15.1155 20.1556 15.0201 20.1951 14.9497 20.2655C14.8794 20.3358 14.8399 20.4312 14.8399 20.5306V31.033C14.8399 31.1324 14.8794 31.2278 14.9497 31.2981C15.0201 31.3685 15.1155 31.408 15.2149 31.408Z" fill="white"/>
</svg>
